<svg xmlns="http://www.w3.org/2000/svg" width="24" height="23" viewBox="0 0 24 23">
  <metadata><?xpacket begin="﻿" id="W5M0MpCehiHzreSzNTczkc9d"?>
<x:xmpmeta xmlns:x="adobe:ns:meta/" x:xmptk="Adobe XMP Core 5.6-c138 79.159824, 2016/09/14-01:09:01        ">
   <rdf:RDF xmlns:rdf="http://www.w3.org/1999/02/22-rdf-syntax-ns#">
      <rdf:Description rdf:about=""/>
   </rdf:RDF>
</x:xmpmeta>
                                                                                                    
                                                                                                    
                                                                                                    
                                                                                                    
                                                                                                    
                                                                                                    
                                                                                                    
                                                                                                    
                                                                                                    
                                                                                                    
                                                                                                    
                                                                                                    
                                                                                                    
                                                                                                    
                                                                                                    
                                                                                                    
                                                                                                    
                                                                                                    
                                                                                                    
                                                                                                    
                           
<?xpacket end="w"?></metadata>
<defs>
    <style>
      .cls-1 {
        fill: #505050;
        fill-rule: evenodd;
      }
    </style>
  </defs>
  <path class="cls-1" d="M47.841,1071.78H60.875a1.291,1.291,0,0,0,0-2.56H47.841l1.455-1.65a1.407,1.407,0,0,0,0-1.81,1.031,1.031,0,0,0-1.591,0l-3.375,3.84q-0.039.045-.075,0.09c-0.01.01-.019,0.03-0.029,0.04s-0.025.04-.037,0.06-0.02.04-.029,0.06a0.2,0.2,0,0,0-.027.05c-0.009.02-.016,0.04-0.024,0.06a0.2,0.2,0,0,0-.023.05c-0.007.02-.012,0.04-0.018,0.06s-0.013.04-.019,0.06-0.009.04-.013,0.06-0.01.04-.014,0.06-0.006.04-.009,0.07-0.006.03-.007,0.05c0,0.05-.005.09-0.005,0.13h0c0,0.04,0,.08.005,0.13,0,0.02,0,.03.007,0.05s0.005,0.05.009,0.07,0.009,0.04.014,0.06,0.008,0.04.013,0.06,0.012,0.04.019,0.06,0.012,0.04.019,0.06a0.205,0.205,0,0,0,.022.05c0.008,0.02.016,0.04,0.025,0.06a0.2,0.2,0,0,0,.026.05c0.01,0.02.019,0.04,0.03,0.06a0.194,0.194,0,0,0,.035.05c0.01,0.02.02,0.03,0.031,0.05s0.046,0.06.071,0.09h0l3.375,3.84a1.04,1.04,0,0,0,1.591,0,1.408,1.408,0,0,0,0-1.81ZM66.875,1059H52.625a1.208,1.208,0,0,0-1.125,1.28v5.11a1.134,1.134,0,1,0,2.25,0v-3.83h12v17.88h-12v-3.83a1.134,1.134,0,1,0-2.25,0v5.11a1.208,1.208,0,0,0,1.125,1.28h14.25A1.208,1.208,0,0,0,68,1080.72v-20.44A1.208,1.208,0,0,0,66.875,1059Z" transform="translate(-44 -1059)"/>
</svg>
